<?xml version="1.0" encoding="UTF-8" standalone="no"?>
<!-- Generator: Adobe Illustrator 15.0.0, SVG Export Plug-In . SVG Version: 6.00 Build 0)  -->

<svg
   xmlns:dc="http://purl.org/dc/elements/1.1/"
   xmlns:cc="http://creativecommons.org/ns#"
   xmlns:rdf="http://www.w3.org/1999/02/22-rdf-syntax-ns#"
   xmlns:svg="http://www.w3.org/2000/svg"
   xmlns="http://www.w3.org/2000/svg"
   xmlns:sodipodi="http://sodipodi.sourceforge.net/DTD/sodipodi-0.dtd"
   xmlns:inkscape="http://www.inkscape.org/namespaces/inkscape"
   version="1.1"
   id="Calque_1"
   x="0px"
   y="0px"
   width="512px"
   height="512px"
   viewBox="0 0 512 512"
   enable-background="new 0 0 512 512"
   xml:space="preserve"
   sodipodi:docname="brand-instagram.svg"
   inkscape:version="0.92.4 (5da689c313, 2019-01-14)"><metadata
   id="metadata9"><rdf:RDF><cc:Work
       rdf:about=""><dc:format>image/svg+xml</dc:format><dc:type
         rdf:resource="http://purl.org/dc/dcmitype/StillImage" /></cc:Work></rdf:RDF></metadata><defs
   id="defs7" /><sodipodi:namedview
   pagecolor="#ffffff"
   bordercolor="#666666"
   borderopacity="1"
   objecttolerance="10"
   gridtolerance="10"
   guidetolerance="10"
   inkscape:pageopacity="0"
   inkscape:pageshadow="2"
   inkscape:window-width="656"
   inkscape:window-height="480"
   id="namedview5"
   showgrid="false"
   inkscape:zoom="0.4609375"
   inkscape:cx="256"
   inkscape:cy="256"
   inkscape:window-x="0"
   inkscape:window-y="0"
   inkscape:window-maximized="0"
   inkscape:current-layer="Calque_1" />
<path
   d="M254.699,45.911c68.007,0,76.07,0.25,102.932,1.482c69.022,3.141,101.274,35.891,104.426,104.404  c1.222,26.852,1.451,34.916,1.451,102.921c0,68.027-0.249,76.07-1.451,102.912c-3.173,68.464-35.32,101.274-104.426,104.425  c-26.861,1.223-34.883,1.472-102.932,1.472c-68.006,0-76.07-0.249-102.921-1.472c-69.19-3.172-101.265-36.066-104.404-104.425  c-1.234-26.862-1.483-34.905-1.483-102.932c0-68.006,0.27-76.05,1.483-102.923c3.16-68.493,35.318-101.264,104.404-104.404  C178.649,46.161,186.693,45.911,254.699,45.911z M254.699,0c-69.167,0-77.832,0.301-104.996,1.533  C57.197,5.773,5.792,57.094,1.556,149.672C0.301,176.867,0,185.532,0,254.699c0,69.168,0.301,77.853,1.523,105.025  c4.25,92.508,55.571,143.911,148.15,148.138c27.193,1.245,35.858,1.535,105.025,1.535c69.168,0,77.853-0.29,105.025-1.535  c92.402-4.227,143.953-55.549,148.118-148.138c1.265-27.173,1.555-35.857,1.555-105.025c0-69.167-0.29-77.832-1.535-105.005  C503.721,57.291,452.313,5.792,359.745,1.554C332.552,0.301,323.867,0,254.699,0z M254.699,123.909  c-72.225,0-130.791,58.566-130.791,130.791c0,72.214,58.566,130.812,130.791,130.812c72.214,0,130.79-58.556,130.79-130.812  C385.489,182.475,326.913,123.909,254.699,123.909z M254.699,339.598c-46.885,0-84.899-37.992-84.899-84.898  c0-46.887,38.014-84.901,84.899-84.901c46.885,0,84.898,38.014,84.898,84.901C339.598,301.605,301.584,339.598,254.699,339.598z   M390.671,88.195c-16.913,0-30.595,13.681-30.595,30.553c0,16.882,13.682,30.571,30.595,30.571  c16.871,0,30.552-13.689,30.552-30.571C421.223,101.876,407.542,88.195,390.671,88.195z"
   id="path2"
   style="fill:#b3b3b3" />
</svg>