<?xml version="1.0" encoding="UTF-8" standalone="no"?>
<svg
   xmlns:dc="http://purl.org/dc/elements/1.1/"
   xmlns:cc="http://creativecommons.org/ns#"
   xmlns:rdf="http://www.w3.org/1999/02/22-rdf-syntax-ns#"
   xmlns:svg="http://www.w3.org/2000/svg"
   xmlns="http://www.w3.org/2000/svg"
   xmlns:sodipodi="http://sodipodi.sourceforge.net/DTD/sodipodi-0.dtd"
   xmlns:inkscape="http://www.inkscape.org/namespaces/inkscape"
   viewBox="0 0 1333.33 1333.3"
   shape-rendering="geometricPrecision"
   text-rendering="geometricPrecision"
   image-rendering="optimizeQuality"
   fill-rule="evenodd"
   clip-rule="evenodd"
   version="1.1"
   id="svg57"
   sodipodi:docname="brand-spotify.svg"
   inkscape:version="0.92.4 (5da689c313, 2019-01-14)">
  <metadata
     id="metadata63">
    <rdf:RDF>
      <cc:Work
         rdf:about="">
        <dc:format>image/svg+xml</dc:format>
        <dc:type
           rdf:resource="http://purl.org/dc/dcmitype/StillImage" />
      </cc:Work>
    </rdf:RDF>
  </metadata>
  <defs
     id="defs61" />
  <sodipodi:namedview
     pagecolor="#ffffff"
     bordercolor="#666666"
     borderopacity="1"
     objecttolerance="10"
     gridtolerance="10"
     guidetolerance="10"
     inkscape:pageopacity="0"
     inkscape:pageshadow="2"
     inkscape:window-width="1920"
     inkscape:window-height="1014"
     id="namedview59"
     showgrid="false"
     inkscape:zoom="0.59326481"
     inkscape:cx="262.96667"
     inkscape:cy="666.65002"
     inkscape:window-x="0"
     inkscape:window-y="0"
     inkscape:window-maximized="1"
     inkscape:current-layer="svg57" />
  <path
     d="M666.66 0C298.48 0 0 298.47 0 666.65c0 368.19 298.48 666.65 666.66 666.65 368.22 0 666.67-298.45 666.67-666.65C1333.33 298.49 1034.88.03 666.65.03l.01-.04zm305.73 961.51c-11.94 19.58-37.57 25.8-57.16 13.77-156.52-95.61-353.57-117.26-585.63-64.24-22.36 5.09-44.65-8.92-49.75-31.29-5.12-22.37 8.84-44.66 31.26-49.75 253.95-58.02 471.78-33.04 647.51 74.35 19.59 12.02 25.8 37.57 13.77 57.16zm81.6-181.52c-15.05 24.45-47.05 32.17-71.49 17.13-179.2-110.15-452.35-142.05-664.31-77.7-27.49 8.3-56.52-7.19-64.86-34.63-8.28-27.49 7.22-56.46 34.66-64.82 242.11-73.46 543.1-37.88 748.89 88.58 24.44 15.05 32.16 47.05 17.12 71.46V780zm7.01-189.02c-214.87-127.62-569.36-139.35-774.5-77.09-32.94 9.99-67.78-8.6-77.76-41.55-9.98-32.96 8.6-67.77 41.56-77.78 235.49-71.49 626.96-57.68 874.34 89.18 29.69 17.59 39.41 55.85 21.81 85.44-17.52 29.63-55.89 39.4-85.42 21.8h-.03z"
     id="path55"
     fill-rule="nonzero"
     fill="#1ed760"
     style="fill:#b3b3b3;fill-opacity:1" />
  <path
     style="fill:#000000;fill-opacity:0;stroke-width:1.68558788"
     d="M 629.58204,1331.7695 C 479.73709,1321.2714 348.54606,1268.8743 235.99726,1174.5736 217.02314,1158.6759 174.15771,1115.7955 158.2629,1096.8121 83.162061,1007.1182 32.437601,900.16162 11.973598,788.34947 3.7685916,743.5186 1.8119484,720.21609 1.7831596,666.98714 1.7474037,600.87682 6.2454406,563.06315 21.267841,503.18518 79.007443,273.0402 260.15396,87.593368 488.33731,25.027768 548.38678,8.5627993 603.41415,1.2146933 666.66498,1.2146933 c 65.37603,0 124.92785,8.3233203 185.52197,25.9296657 112.14979,32.586463 209.01665,90.957391 291.49945,175.654441 104.2597,107.05863 166.5474,238.4541 184.8893,390.02247 4.1742,34.49448 4.1482,114.21089 -0.048,148.33174 -10.3737,84.34217 -30.5341,151.41906 -67.6329,225.02599 -34.0198,67.498 -71.228,118.7183 -125.5166,172.7847 -72.3421,72.046 -157.47331,125.0599 -252.95752,157.5247 -47.07572,16.0058 -94.51386,26.6299 -143.27497,32.0874 -23.37651,2.6164 -90.05928,4.5602 -109.56322,3.1937 z M 956.02492,977.42162 c 8.02469,-4.09391 16.43209,-13.20751 19.94903,-21.62475 3.52123,-8.42746 3.18037,-25.13078 -0.68248,-33.44316 -6.25449,-13.459 -24.37427,-25.71877 -73.48698,-49.72096 C 744.70586,795.856 555.13775,778.9772 342.19797,822.80636 c -26.27658,5.4085 -38.56666,8.72083 -43.85346,11.81909 -12.53066,7.34347 -19.70187,20.6761 -19.70187,36.62953 0,18.57252 11.91493,34.1563 30.18662,39.48168 l 9.76181,2.84514 39.61132,-7.80227 c 66.69618,-13.13722 109.96821,-18.56888 169.40158,-21.26393 141.00552,-6.39399 267.84124,22.33045 377.24512,85.43455 7.3739,4.25326 16.15285,8.76059 19.50876,10.01628 8.07883,3.02289 23.12331,1.81388 31.66707,-2.54481 z m 77.36238,-177.70891 c 18.0377,-9.21233 28.3433,-26.15855 28.4427,-46.77031 0.072,-15.00622 -4.9839,-27.27676 -15.4045,-37.38373 -8.1573,-7.91176 -41.322,-27.09972 -73.82631,-42.71337 -178.05643,-85.53045 -399.6784,-112.76381 -601.75489,-73.9448 -35.97859,6.9115 -79.98963,18.74551 -91.8011,24.68414 -46.20864,23.23301 -33.12622,92.23734 18.64061,98.32152 7.63236,0.89703 13.53541,-0.0979 35.26412,-5.94367 210.13377,-56.53312 458.18147,-27.73574 635.42355,73.77021 25.43658,14.56746 28.61038,15.64854 43.83902,14.93301 9.4373,-0.44343 14.8055,-1.69899 21.1768,-4.953 z m 86.9139,-205.75225 c 11.6729,-5.61019 23.8013,-18.26247 29.824,-31.11219 3.9084,-8.33878 4.5175,-11.80215 4.5175,-25.68685 0,-14.69962 -0.4605,-16.98379 -5.4781,-27.17602 -9.1037,-18.4923 -19.549,-26.20651 -68.8649,-50.85899 -131.75888,-65.86494 -297.98569,-102.5005 -484.20257,-106.71586 -111.82222,-2.53129 -219.93275,8.84364 -315.17367,33.16127 -45.1835,11.5366 -57.60907,18.79779 -68.26829,39.89434 -20.54081,40.65405 6.63569,88.28354 51.98815,91.11435 10.0381,0.62655 15.59159,-0.30371 37.04951,-6.20616 137.6782,-37.87125 325.87207,-42.72199 489.70565,-12.62228 100.18211,18.40558 193.20437,49.99721 258.67172,87.84843 22.0539,12.7509 26.4483,14.07284 44.7341,13.45716 13.24,-0.4458 17.6555,-1.32851 25.4969,-5.0972 z"
     id="path65"
     inkscape:connector-curvature="0" />
  <path
     style="fill:#999999;fill-opacity:0;stroke-width:1.68558788"
     d="M 629.58204,1331.7695 C 479.73709,1321.2714 348.54606,1268.8743 235.99726,1174.5736 217.02314,1158.6759 174.15771,1115.7955 158.2629,1096.8121 83.162061,1007.1182 32.437601,900.16162 11.973598,788.34947 3.7685916,743.5186 1.8119484,720.21609 1.7831596,666.98714 1.7474037,600.87682 6.2454406,563.06315 21.267841,503.18518 79.007443,273.0402 260.15396,87.593368 488.33731,25.027768 548.38678,8.5627993 603.41415,1.2146933 666.66498,1.2146933 c 65.37603,0 124.92785,8.3233203 185.52197,25.9296657 112.14979,32.586463 209.01665,90.957391 291.49945,175.654441 104.2597,107.05863 166.5474,238.4541 184.8893,390.02247 4.1742,34.49448 4.1482,114.21089 -0.048,148.33174 -10.3737,84.34217 -30.5341,151.41906 -67.6329,225.02599 -34.0198,67.498 -71.228,118.7183 -125.5166,172.7847 -72.3421,72.046 -157.47331,125.0599 -252.95752,157.5247 -47.07572,16.0058 -94.51386,26.6299 -143.27497,32.0874 -23.37651,2.6164 -90.05928,4.5602 -109.56322,3.1937 z M 956.02492,977.42162 c 8.02469,-4.09391 16.43209,-13.20751 19.94903,-21.62475 3.52123,-8.42746 3.18037,-25.13078 -0.68248,-33.44316 -6.25449,-13.459 -24.37427,-25.71877 -73.48698,-49.72096 C 744.70586,795.856 555.13775,778.9772 342.19797,822.80636 c -26.27658,5.4085 -38.56666,8.72083 -43.85346,11.81909 -12.53066,7.34347 -19.70187,20.6761 -19.70187,36.62953 0,18.57252 11.91493,34.1563 30.18662,39.48168 l 9.76181,2.84514 39.61132,-7.80227 c 66.69618,-13.13722 109.96821,-18.56888 169.40158,-21.26393 141.00552,-6.39399 267.84124,22.33045 377.24512,85.43455 7.3739,4.25326 16.15285,8.76059 19.50876,10.01628 8.07883,3.02289 23.12331,1.81388 31.66707,-2.54481 z m 77.36238,-177.70891 c 18.0377,-9.21233 28.3433,-26.15855 28.4427,-46.77031 0.072,-15.00622 -4.9839,-27.27676 -15.4045,-37.38373 -8.1573,-7.91176 -41.322,-27.09972 -73.82631,-42.71337 -178.05643,-85.53045 -399.6784,-112.76381 -601.75489,-73.9448 -35.97859,6.9115 -79.98963,18.74551 -91.8011,24.68414 -46.20864,23.23301 -33.12622,92.23734 18.64061,98.32152 7.63236,0.89703 13.53541,-0.0979 35.26412,-5.94367 210.13377,-56.53312 458.18147,-27.73574 635.42355,73.77021 25.43658,14.56746 28.61038,15.64854 43.83902,14.93301 9.4373,-0.44343 14.8055,-1.69899 21.1768,-4.953 z m 86.9139,-205.75225 c 11.6729,-5.61019 23.8013,-18.26247 29.824,-31.11219 3.9084,-8.33878 4.5175,-11.80215 4.5175,-25.68685 0,-14.69962 -0.4605,-16.98379 -5.4781,-27.17602 -9.1037,-18.4923 -19.549,-26.20651 -68.8649,-50.85899 -131.75888,-65.86494 -297.98569,-102.5005 -484.20257,-106.71586 -111.82222,-2.53129 -219.93275,8.84364 -315.17367,33.16127 -45.1835,11.5366 -57.60907,18.79779 -68.26829,39.89434 -20.54081,40.65405 6.63569,88.28354 51.98815,91.11435 10.0381,0.62655 15.59159,-0.30371 37.04951,-6.20616 137.6782,-37.87125 325.87207,-42.72199 489.70565,-12.62228 100.18211,18.40558 193.20437,49.99721 258.67172,87.84843 22.0539,12.7509 26.4483,14.07284 44.7341,13.45716 13.24,-0.4458 17.6555,-1.32851 25.4969,-5.0972 z"
     id="path67"
     inkscape:connector-curvature="0" />
  <path
     style="fill:#999999;fill-opacity:0;stroke-width:1.68558788"
     d="M 629.58204,1331.7695 C 479.73709,1321.2714 348.54606,1268.8743 235.99726,1174.5736 217.02314,1158.6759 174.15771,1115.7955 158.2629,1096.8121 83.162061,1007.1182 32.437601,900.16162 11.973598,788.34947 3.7685916,743.5186 1.8119484,720.21609 1.7831596,666.98714 1.7474037,600.87682 6.2454406,563.06315 21.267841,503.18518 79.007443,273.0402 260.15396,87.593368 488.33731,25.027768 548.38678,8.5627993 603.41415,1.2146933 666.66498,1.2146933 c 65.37603,0 124.92785,8.3233203 185.52197,25.9296657 112.14979,32.586463 209.01665,90.957391 291.49945,175.654441 104.2597,107.05863 166.5474,238.4541 184.8893,390.02247 4.1742,34.49448 4.1482,114.21089 -0.048,148.33174 -10.3737,84.34217 -30.5341,151.41906 -67.6329,225.02599 -34.0198,67.498 -71.228,118.7183 -125.5166,172.7847 -72.3421,72.046 -157.47331,125.0599 -252.95752,157.5247 -47.07572,16.0058 -94.51386,26.6299 -143.27497,32.0874 -23.37651,2.6164 -90.05928,4.5602 -109.56322,3.1937 z M 956.02492,977.42162 c 8.02469,-4.09391 16.43209,-13.20751 19.94903,-21.62475 3.52123,-8.42746 3.18037,-25.13078 -0.68248,-33.44316 -6.25449,-13.459 -24.37427,-25.71877 -73.48698,-49.72096 C 744.70586,795.856 555.13775,778.9772 342.19797,822.80636 c -26.27658,5.4085 -38.56666,8.72083 -43.85346,11.81909 -12.53066,7.34347 -19.70187,20.6761 -19.70187,36.62953 0,18.57252 11.91493,34.1563 30.18662,39.48168 l 9.76181,2.84514 39.61132,-7.80227 c 66.69618,-13.13722 109.96821,-18.56888 169.40158,-21.26393 141.00552,-6.39399 267.84124,22.33045 377.24512,85.43455 7.3739,4.25326 16.15285,8.76059 19.50876,10.01628 8.07883,3.02289 23.12331,1.81388 31.66707,-2.54481 z m 77.36238,-177.70891 c 18.0377,-9.21233 28.3433,-26.15855 28.4427,-46.77031 0.072,-15.00622 -4.9839,-27.27676 -15.4045,-37.38373 -8.1573,-7.91176 -41.322,-27.09972 -73.82631,-42.71337 -178.05643,-85.53045 -399.6784,-112.76381 -601.75489,-73.9448 -35.97859,6.9115 -79.98963,18.74551 -91.8011,24.68414 -46.20864,23.23301 -33.12622,92.23734 18.64061,98.32152 7.63236,0.89703 13.53541,-0.0979 35.26412,-5.94367 210.13377,-56.53312 458.18147,-27.73574 635.42355,73.77021 25.43658,14.56746 28.61038,15.64854 43.83902,14.93301 9.4373,-0.44343 14.8055,-1.69899 21.1768,-4.953 z m 86.9139,-205.75225 c 11.6729,-5.61019 23.8013,-18.26247 29.824,-31.11219 3.9084,-8.33878 4.5175,-11.80215 4.5175,-25.68685 0,-14.69962 -0.4605,-16.98379 -5.4781,-27.17602 -9.1037,-18.4923 -19.549,-26.20651 -68.8649,-50.85899 -131.75888,-65.86494 -297.98569,-102.5005 -484.20257,-106.71586 -111.82222,-2.53129 -219.93275,8.84364 -315.17367,33.16127 -45.1835,11.5366 -57.60907,18.79779 -68.26829,39.89434 -20.54081,40.65405 6.63569,88.28354 51.98815,91.11435 10.0381,0.62655 15.59159,-0.30371 37.04951,-6.20616 137.6782,-37.87125 325.87207,-42.72199 489.70565,-12.62228 100.18211,18.40558 193.20437,49.99721 258.67172,87.84843 22.0539,12.7509 26.4483,14.07284 44.7341,13.45716 13.24,-0.4458 17.6555,-1.32851 25.4969,-5.0972 z"
     id="path114"
     inkscape:connector-curvature="0" />
  <path
     style="fill:#999999;fill-opacity:0;stroke-width:1.68558788"
     d="m 631.60475,1331.786 c -48.61794,-3.7735 -73.19827,-7.192 -109.56322,-15.2372 C 357.47944,1280.1415 212.20799,1181.6059 116.33287,1041.362 23.377347,905.38888 -15.669057,738.21555 7.2634938,574.39225 28.03805,425.98502 97.212028,290.63962 205.4338,186.65338 311.65233,84.591978 444.03161,22.500756 593.67902,4.5507112 618.50782,1.5725244 688.9488,0.5168895 716.72694,2.7067041 877.21013,15.357965 1024.3015,82.915299 1137.2878,195.86532 c 97.272,97.24076 162.2711,222.30497 185.2832,356.50184 7.6191,44.43111 8.5557,57.16817 8.4906,115.46278 -0.065,57.90623 -1.3296,73.99405 -9.3033,118.32019 -31.7266,176.36887 -135.8982,334.51057 -286.4552,434.86447 -90.09534,60.053 -193.05117,96.9308 -302.56308,108.3753 -17.84262,1.8646 -86.90247,3.5008 -101.13527,2.3961 z m 323.7549,-354.31599 c 14.86161,-7.65594 23.23595,-21.11347 23.28419,-37.41762 0.0265,-8.9656 -0.86403,-12.60105 -4.90135,-20.00835 -5.76815,-10.58285 -8.90604,-13.12896 -33.67515,-27.32429 C 774.85611,798.03619 565.8306,774.66826 332.41289,824.78723 c -29.67358,6.37144 -35.46234,8.88866 -44.36841,19.29341 -19.94093,23.29648 -7.16771,60.64604 23.05334,67.40922 8.47233,1.89602 11.7751,1.50166 47.65672,-5.69034 21.20441,-4.25014 48.79343,-9.2529 61.30892,-11.11724 183.91757,-27.39681 344.19424,-3.59774 476.58286,70.76656 13.52279,7.59591 26.54903,14.45051 28.94718,15.23243 6.8315,2.22742 22.48733,0.53843 29.76615,-3.21126 z m 77.41505,-177.74262 c 10.0399,-5.17521 19.2387,-14.44832 24.6635,-24.86262 3.2469,-6.23349 3.9472,-10.13829 3.9297,-21.91264 -0.036,-24.21122 -7.633,-35.0649 -36.6808,-52.40439 C 999.50837,685.51774 947.49943,660.4047 915.62631,647.8866 726.37708,573.55939 498.46399,560.918 306.2867,614.08908 c -25.46281,7.04498 -31.3296,9.75509 -40.2644,18.59975 -9.99729,9.89643 -15.2087,22.53378 -15.24049,36.95724 -0.0649,29.45806 22.81755,52.26245 52.13329,51.9554 8.24484,-0.0863 18.39993,-2.00474 33.71176,-6.36847 198.39689,-56.54119 463.00629,-24.90463 634.14965,75.81859 21.84441,12.85613 25.95731,14.21972 40.92829,13.56932 9.522,-0.41366 14.7219,-1.62137 21.0699,-4.89352 z m 80.2749,-202.73843 c 17.477,-6.10077 33.1031,-21.74957 39.5077,-39.56503 4.0415,-11.24201 3.6268,-30.64492 -0.9108,-42.61939 -6.1217,-16.15464 -17.7729,-27.0468 -45.0176,-42.08498 C 911.9172,365.24513 613.82421,325.00706 349.26877,370.48735 c -40.31002,6.92978 -97.90774,21.68521 -111.28224,28.50837 -9.32292,4.75621 -21.00614,17.25154 -26.39931,28.23436 -4.25026,8.65534 -4.75063,11.45242 -4.75063,26.55611 0,15.63778 0.40368,17.70249 5.47804,28.01882 10.11923,20.57264 29.13178,33.34002 51.81621,34.79581 10.22171,0.656 15.64541,-0.23272 37.17512,-6.09154 86.35265,-23.49882 180.7437,-33.81394 290.68747,-31.76651 113.2675,2.10931 211.60022,16.30304 306.29874,44.21237 56.18508,16.55872 115.95403,41.46138 155.55983,64.81377 15.7863,9.30793 23.2637,11.60303 38.1277,11.7028 8.1732,0.0548 16.6678,-0.9461 21.0699,-2.48275 z"
     id="path4624"
     inkscape:connector-curvature="0" />
  <path
     style="fill:#999999;fill-opacity:0;stroke-width:1.68558788"
     d="m 631.60475,1331.786 c -48.61794,-3.7735 -73.19827,-7.192 -109.56322,-15.2372 C 357.47944,1280.1415 212.20799,1181.6059 116.33287,1041.362 23.377347,905.38888 -15.669057,738.21555 7.2634938,574.39225 28.03805,425.98502 97.212028,290.63962 205.4338,186.65338 311.65233,84.591978 444.03161,22.500756 593.67902,4.5507112 618.50782,1.5725244 688.9488,0.5168895 716.72694,2.7067041 877.21013,15.357965 1024.3015,82.915299 1137.2878,195.86532 c 97.272,97.24076 162.2711,222.30497 185.2832,356.50184 7.6191,44.43111 8.5557,57.16817 8.4906,115.46278 -0.065,57.90623 -1.3296,73.99405 -9.3033,118.32019 -31.7266,176.36887 -135.8982,334.51057 -286.4552,434.86447 -90.09534,60.053 -193.05117,96.9308 -302.56308,108.3753 -17.84262,1.8646 -86.90247,3.5008 -101.13527,2.3961 z m 323.7549,-354.31599 c 14.86161,-7.65594 23.23595,-21.11347 23.28419,-37.41762 0.0265,-8.9656 -0.86403,-12.60105 -4.90135,-20.00835 -5.76815,-10.58285 -8.90604,-13.12896 -33.67515,-27.32429 C 774.85611,798.03619 565.8306,774.66826 332.41289,824.78723 c -29.67358,6.37144 -35.46234,8.88866 -44.36841,19.29341 -19.94093,23.29648 -7.16771,60.64604 23.05334,67.40922 8.47233,1.89602 11.7751,1.50166 47.65672,-5.69034 21.20441,-4.25014 48.79343,-9.2529 61.30892,-11.11724 183.91757,-27.39681 344.19424,-3.59774 476.58286,70.76656 13.52279,7.59591 26.54903,14.45051 28.94718,15.23243 6.8315,2.22742 22.48733,0.53843 29.76615,-3.21126 z m 77.41505,-177.74262 c 10.0399,-5.17521 19.2387,-14.44832 24.6635,-24.86262 3.2469,-6.23349 3.9472,-10.13829 3.9297,-21.91264 -0.036,-24.21122 -7.633,-35.0649 -36.6808,-52.40439 C 999.50837,685.51774 947.49943,660.4047 915.62631,647.8866 726.37708,573.55939 498.46399,560.918 306.2867,614.08908 c -25.46281,7.04498 -31.3296,9.75509 -40.2644,18.59975 -9.99729,9.89643 -15.2087,22.53378 -15.24049,36.95724 -0.0649,29.45806 22.81755,52.26245 52.13329,51.9554 8.24484,-0.0863 18.39993,-2.00474 33.71176,-6.36847 198.39689,-56.54119 463.00629,-24.90463 634.14965,75.81859 21.84441,12.85613 25.95731,14.21972 40.92829,13.56932 9.522,-0.41366 14.7219,-1.62137 21.0699,-4.89352 z m 80.2749,-202.73843 c 17.477,-6.10077 33.1031,-21.74957 39.5077,-39.56503 4.0415,-11.24201 3.6268,-30.64492 -0.9108,-42.61939 -6.1217,-16.15464 -17.7729,-27.0468 -45.0176,-42.08498 C 911.9172,365.24513 613.82421,325.00706 349.26877,370.48735 c -40.31002,6.92978 -97.90774,21.68521 -111.28224,28.50837 -9.32292,4.75621 -21.00614,17.25154 -26.39931,28.23436 -4.25026,8.65534 -4.75063,11.45242 -4.75063,26.55611 0,15.63778 0.40368,17.70249 5.47804,28.01882 10.11923,20.57264 29.13178,33.34002 51.81621,34.79581 10.22171,0.656 15.64541,-0.23272 37.17512,-6.09154 86.35265,-23.49882 180.7437,-33.81394 290.68747,-31.76651 113.2675,2.10931 211.60022,16.30304 306.29874,44.21237 56.18508,16.55872 115.95403,41.46138 155.55983,64.81377 15.7863,9.30793 23.2637,11.60303 38.1277,11.7028 8.1732,0.0548 16.6678,-0.9461 21.0699,-2.48275 z"
     id="path4626"
     inkscape:connector-curvature="0" />
  <path
     style="fill:#999999;fill-opacity:0;stroke-width:1.68558788"
     d="m 631.60475,1331.786 c -48.61794,-3.7735 -73.19827,-7.192 -109.56322,-15.2372 C 357.47944,1280.1415 212.20799,1181.6059 116.33287,1041.362 23.377347,905.38888 -15.669057,738.21555 7.2634938,574.39225 28.03805,425.98502 97.212028,290.63962 205.4338,186.65338 311.65233,84.591978 444.03161,22.500756 593.67902,4.5507112 618.50782,1.5725244 688.9488,0.5168895 716.72694,2.7067041 877.21013,15.357965 1024.3015,82.915299 1137.2878,195.86532 c 97.272,97.24076 162.2711,222.30497 185.2832,356.50184 7.6191,44.43111 8.5557,57.16817 8.4906,115.46278 -0.065,57.90623 -1.3296,73.99405 -9.3033,118.32019 -31.7266,176.36887 -135.8982,334.51057 -286.4552,434.86447 -90.09534,60.053 -193.05117,96.9308 -302.56308,108.3753 -17.84262,1.8646 -86.90247,3.5008 -101.13527,2.3961 z m 323.7549,-354.31599 c 14.86161,-7.65594 23.23595,-21.11347 23.28419,-37.41762 0.0265,-8.9656 -0.86403,-12.60105 -4.90135,-20.00835 -5.76815,-10.58285 -8.90604,-13.12896 -33.67515,-27.32429 C 774.85611,798.03619 565.8306,774.66826 332.41289,824.78723 c -29.67358,6.37144 -35.46234,8.88866 -44.36841,19.29341 -19.94093,23.29648 -7.16771,60.64604 23.05334,67.40922 8.47233,1.89602 11.7751,1.50166 47.65672,-5.69034 21.20441,-4.25014 48.79343,-9.2529 61.30892,-11.11724 183.91757,-27.39681 344.19424,-3.59774 476.58286,70.76656 13.52279,7.59591 26.54903,14.45051 28.94718,15.23243 6.8315,2.22742 22.48733,0.53843 29.76615,-3.21126 z m 77.41505,-177.74262 c 10.0399,-5.17521 19.2387,-14.44832 24.6635,-24.86262 3.2469,-6.23349 3.9472,-10.13829 3.9297,-21.91264 -0.036,-24.21122 -7.633,-35.0649 -36.6808,-52.40439 C 999.50837,685.51774 947.49943,660.4047 915.62631,647.8866 726.37708,573.55939 498.46399,560.918 306.2867,614.08908 c -25.46281,7.04498 -31.3296,9.75509 -40.2644,18.59975 -9.99729,9.89643 -15.2087,22.53378 -15.24049,36.95724 -0.0649,29.45806 22.81755,52.26245 52.13329,51.9554 8.24484,-0.0863 18.39993,-2.00474 33.71176,-6.36847 198.39689,-56.54119 463.00629,-24.90463 634.14965,75.81859 21.84441,12.85613 25.95731,14.21972 40.92829,13.56932 9.522,-0.41366 14.7219,-1.62137 21.0699,-4.89352 z m 80.2749,-202.73843 c 17.477,-6.10077 33.1031,-21.74957 39.5077,-39.56503 4.0415,-11.24201 3.6268,-30.64492 -0.9108,-42.61939 -6.1217,-16.15464 -17.7729,-27.0468 -45.0176,-42.08498 C 911.9172,365.24513 613.82421,325.00706 349.26877,370.48735 c -40.31002,6.92978 -97.90774,21.68521 -111.28224,28.50837 -9.32292,4.75621 -21.00614,17.25154 -26.39931,28.23436 -4.25026,8.65534 -4.75063,11.45242 -4.75063,26.55611 0,15.63778 0.40368,17.70249 5.47804,28.01882 10.11923,20.57264 29.13178,33.34002 51.81621,34.79581 10.22171,0.656 15.64541,-0.23272 37.17512,-6.09154 86.35265,-23.49882 180.7437,-33.81394 290.68747,-31.76651 113.2675,2.10931 211.60022,16.30304 306.29874,44.21237 56.18508,16.55872 115.95403,41.46138 155.55983,64.81377 15.7863,9.30793 23.2637,11.60303 38.1277,11.7028 8.1732,0.0548 16.6678,-0.9461 21.0699,-2.48275 z"
     id="path4628"
     inkscape:connector-curvature="0" />
  <path
     style="fill:#999999;fill-opacity:0;stroke-width:1.68558788"
     d="m 631.60475,1331.786 c -48.61794,-3.7735 -73.19827,-7.192 -109.56322,-15.2372 C 357.47944,1280.1415 212.20799,1181.6059 116.33287,1041.362 23.377347,905.38888 -15.669057,738.21555 7.2634938,574.39225 28.03805,425.98502 97.212028,290.63962 205.4338,186.65338 311.65233,84.591978 444.03161,22.500756 593.67902,4.5507112 618.50782,1.5725244 688.9488,0.5168895 716.72694,2.7067041 877.21013,15.357965 1024.3015,82.915299 1137.2878,195.86532 c 97.272,97.24076 162.2711,222.30497 185.2832,356.50184 7.6191,44.43111 8.5557,57.16817 8.4906,115.46278 -0.065,57.90623 -1.3296,73.99405 -9.3033,118.32019 -31.7266,176.36887 -135.8982,334.51057 -286.4552,434.86447 -90.09534,60.053 -193.05117,96.9308 -302.56308,108.3753 -17.84262,1.8646 -86.90247,3.5008 -101.13527,2.3961 z m 323.7549,-354.31599 c 14.86161,-7.65594 23.23595,-21.11347 23.28419,-37.41762 0.0265,-8.9656 -0.86403,-12.60105 -4.90135,-20.00835 -5.76815,-10.58285 -8.90604,-13.12896 -33.67515,-27.32429 C 774.85611,798.03619 565.8306,774.66826 332.41289,824.78723 c -29.67358,6.37144 -35.46234,8.88866 -44.36841,19.29341 -19.94093,23.29648 -7.16771,60.64604 23.05334,67.40922 8.47233,1.89602 11.7751,1.50166 47.65672,-5.69034 21.20441,-4.25014 48.79343,-9.2529 61.30892,-11.11724 183.91757,-27.39681 344.19424,-3.59774 476.58286,70.76656 13.52279,7.59591 26.54903,14.45051 28.94718,15.23243 6.8315,2.22742 22.48733,0.53843 29.76615,-3.21126 z m 77.41505,-177.74262 c 10.0399,-5.17521 19.2387,-14.44832 24.6635,-24.86262 3.2469,-6.23349 3.9472,-10.13829 3.9297,-21.91264 -0.036,-24.21122 -7.633,-35.0649 -36.6808,-52.40439 C 999.50837,685.51774 947.49943,660.4047 915.62631,647.8866 726.37708,573.55939 498.46399,560.918 306.2867,614.08908 c -25.46281,7.04498 -31.3296,9.75509 -40.2644,18.59975 -9.99729,9.89643 -15.2087,22.53378 -15.24049,36.95724 -0.0649,29.45806 22.81755,52.26245 52.13329,51.9554 8.24484,-0.0863 18.39993,-2.00474 33.71176,-6.36847 198.39689,-56.54119 463.00629,-24.90463 634.14965,75.81859 21.84441,12.85613 25.95731,14.21972 40.92829,13.56932 9.522,-0.41366 14.7219,-1.62137 21.0699,-4.89352 z m 80.2749,-202.73843 c 17.477,-6.10077 33.1031,-21.74957 39.5077,-39.56503 4.0415,-11.24201 3.6268,-30.64492 -0.9108,-42.61939 -6.1217,-16.15464 -17.7729,-27.0468 -45.0176,-42.08498 C 911.9172,365.24513 613.82421,325.00706 349.26877,370.48735 c -40.31002,6.92978 -97.90774,21.68521 -111.28224,28.50837 -9.32292,4.75621 -21.00614,17.25154 -26.39931,28.23436 -4.25026,8.65534 -4.75063,11.45242 -4.75063,26.55611 0,15.63778 0.40368,17.70249 5.47804,28.01882 10.11923,20.57264 29.13178,33.34002 51.81621,34.79581 10.22171,0.656 15.64541,-0.23272 37.17512,-6.09154 86.35265,-23.49882 180.7437,-33.81394 290.68747,-31.76651 113.2675,2.10931 211.60022,16.30304 306.29874,44.21237 56.18508,16.55872 115.95403,41.46138 155.55983,64.81377 15.7863,9.30793 23.2637,11.60303 38.1277,11.7028 8.1732,0.0548 16.6678,-0.9461 21.0699,-2.48275 z"
     id="path4630"
     inkscape:connector-curvature="0" />
  <path
     style="fill:#999999;fill-opacity:0;stroke-width:1.68558788"
     d="m 1080.8441,597.78427 c -4.1552,-0.85227 -10.9818,-3.33359 -15.1703,-5.51403 -4.1884,-2.18045 -19.3723,-10.10632 -33.7419,-17.61305 C 979.88674,547.46868 927.17984,527.98768 859.66335,510.985 681.4715,466.11093 461.33798,465.19587 302.87275,508.67052 c -30.47939,8.36197 -44.12544,8.65427 -59.99831,1.28521 -39.1383,-18.17016 -48.00399,-70.533 -16.87249,-99.65287 11.20817,-10.48393 17.55157,-13.3676 46.65699,-21.20995 145.27347,-39.14341 333.59246,-46.35407 508.12034,-19.45574 122.18158,18.83069 234.89412,54.88065 323.66542,103.52106 25.5695,14.01028 36.7473,23.39143 42.9144,36.01652 12.7172,26.03439 7.4419,54.14649 -13.8047,73.56462 -13.9064,12.70967 -34.8922,18.69957 -52.7103,15.0449 z"
     id="path4632"
     inkscape:connector-curvature="0" />
</svg>
