<?xml version="1.0" encoding="UTF-8" standalone="no"?>
<svg
   xmlns:dc="http://purl.org/dc/elements/1.1/"
   xmlns:cc="http://creativecommons.org/ns#"
   xmlns:rdf="http://www.w3.org/1999/02/22-rdf-syntax-ns#"
   xmlns:svg="http://www.w3.org/2000/svg"
   xmlns="http://www.w3.org/2000/svg"
   xmlns:sodipodi="http://sodipodi.sourceforge.net/DTD/sodipodi-0.dtd"
   xmlns:inkscape="http://www.inkscape.org/namespaces/inkscape"
   shape-rendering="geometricPrecision"
   text-rendering="geometricPrecision"
   image-rendering="optimizeQuality"
   fill-rule="evenodd"
   clip-rule="evenodd"
   viewBox="0 0 512 539.675"
   version="1.1"
   id="svg91"
   sodipodi:docname="brand-mastodon.svg"
   inkscape:version="0.92.4 (5da689c313, 2019-01-14)">
  <metadata
     id="metadata97">
    <rdf:RDF>
      <cc:Work
         rdf:about="">
        <dc:format>image/svg+xml</dc:format>
        <dc:type
           rdf:resource="http://purl.org/dc/dcmitype/StillImage" />
      </cc:Work>
    </rdf:RDF>
  </metadata>
  <defs
     id="defs95" />
  <sodipodi:namedview
     pagecolor="#ffffff"
     bordercolor="#666666"
     borderopacity="1"
     objecttolerance="10"
     gridtolerance="10"
     guidetolerance="10"
     inkscape:pageopacity="0"
     inkscape:pageshadow="2"
     inkscape:window-width="1920"
     inkscape:window-height="1014"
     id="namedview93"
     showgrid="false"
     inkscape:zoom="1.465697"
     inkscape:cx="256"
     inkscape:cy="269.83749"
     inkscape:window-x="0"
     inkscape:window-y="0"
     inkscape:window-maximized="1"
     inkscape:current-layer="svg91" />
  <path
     fill-rule="nonzero"
     d="M509.934 119.48C502.047 61.492 450.957 15.797 390.393 6.943 380.174 5.444 341.461 0 251.779 0h-.669c-89.706 0-108.95 5.444-119.169 6.943C73.064 15.552 19.296 56.613 6.25 115.283c-6.274 28.896-6.943 60.93-5.779 90.315 1.663 42.141 1.984 84.206 5.854 126.175a587.526 587.526 0 0013.962 82.76c12.4 50.284 62.598 92.13 111.779 109.203a302.928 302.928 0 00163.538 8.535 244.938 244.938 0 0017.707-4.782c13.169-4.148 28.621-8.782 39.981-16.927.154-.113.282-.262.374-.432.089-.17.138-.358.146-.549v-40.666a1.197 1.197 0 00-.465-.929 1.242 1.242 0 00-1.023-.227 457.85 457.85 0 01-106.125 12.264c-61.505 0-78.048-28.87-82.784-40.888a125.62 125.62 0 01-7.194-32.23c-.01-.186.026-.369.102-.539a1.165 1.165 0 01.834-.674c.181-.04.371-.034.552.01a449.063 449.063 0 00104.389 12.264c8.457 0 16.888 0 25.347-.219 35.366-.981 72.64-2.772 107.436-9.493.868-.173 1.736-.319 2.482-.538 54.884-10.427 107.113-43.149 112.422-126.005.199-3.264.696-34.168.696-37.555.023-11.503 3.744-81.604-.547-124.676zm-84.473 206.752H367.75V186.417c0-29.435-12.4-44.445-37.625-44.445-27.727 0-41.615 17.758-41.615 52.834v76.528h-57.363v-76.528c0-35.076-13.915-52.834-41.642-52.834-25.075 0-37.599 15.01-37.625 44.445v139.815H94.219V182.173c0-29.432 7.597-52.818 22.792-70.151 15.675-17.293 36.234-26.171 61.754-26.171 29.539 0 51.859 11.234 66.741 33.676l14.359 23.844 14.385-23.844c14.88-22.442 37.201-33.676 66.691-33.676 25.494 0 46.053 8.878 61.777 26.171 15.196 17.317 22.793 40.7 22.793 70.151l-.05 144.059z"
     id="path89" />
  <path
     style="fill:#b3b3b3;stroke-width:0.68226928"
     d="m 210.42842,538.78807 c -26.89185,-1.87882 -54.23135,-7.26055 -77.91916,-15.33824 -10.42715,-3.55572 -30.73127,-13.30479 -39.912749,-19.1642 C 59.856386,483.39164 36.43421,456.8727 24.846604,427.57815 17.780509,409.71439 9.1606486,362.15761 5.9878366,323.53208 4.1274149,300.88348 3.3356921,283.44181 1.0945825,215.73354 0.15672515,187.39905 0.1015471,178.78838 0.76886471,164.90448 2.9143767,120.26596 9.274258,96.265123 25.285331,72.384559 44.624604,43.539972 74.807227,22.25571 111.24374,11.768183 126.24776,7.4495712 153.55873,3.5397177 180.95038,1.7889405 198.916,0.6406419 278.35712,0.19707438 305.46452,1.0937032 c 50.27389,1.6629044 80.53932,4.4785119 99.61131,9.2668898 52.82302,13.262199 93.54194,53.610611 103.29013,102.350287 2.90561,14.52768 4.02253,51.40187 2.84157,93.81203 -0.4441,15.94804 -1.07573,40.81675 -1.40364,55.26381 -0.65,28.63782 -1.4909,36.81192 -5.33424,51.85246 -12.21888,47.81729 -45.45316,79.00274 -97.68814,91.66583 -20.76615,5.03425 -47.96974,8.55055 -83.57799,10.80317 -18.69298,1.18255 -87.04028,1.19383 -98.92904,0.0163 -21.61798,-2.1411 -44.67037,-5.74288 -61.55608,-9.6177 -4.35309,-0.99893 -5.76352,-1.10237 -6.29521,-0.46172 -1.25699,1.51457 1.74003,18.10862 5.18288,28.69688 7.15819,22.0146 24.61611,36.15847 52.09324,42.20436 11.25636,2.4768 19.10431,3.16657 36.02748,3.16657 30.6291,0 62.85293,-3.47617 94.10228,-10.15135 4.96484,-1.06054 9.18639,-1.76885 9.38121,-1.57403 0.19483,0.19483 0.35422,9.63519 0.35422,20.9786 v 20.62438 l -3.24556,2.08268 c -12.94571,8.30723 -44.24159,18.47795 -70.59482,22.94231 -20.79609,3.52296 -50.06299,5.1163 -69.2957,3.7726 z m -57.98121,-288.7705 0.19687,-76.58472 1.91165,-6.11595 c 4.35905,-13.94591 11.9176,-21.18117 25.04623,-23.97499 6.82912,-1.45326 18.33793,-0.9622 24.70942,1.0543 12.46677,3.94559 20.99803,14.52143 24.79908,30.74231 1.06506,4.54516 1.22844,10.20665 1.46188,50.65849 l 0.26282,45.54148 h 28.91289 28.91288 l 0.29762,-44.85921 c 0.20051,-30.22309 0.55697,-46.17173 1.09251,-48.88206 3.51345,-17.78096 11.77288,-28.61335 25.30637,-33.18975 6.25952,-2.11669 17.77415,-2.6024 24.7742,-1.04503 13.27004,2.9523 20.82596,10.27138 25.17016,24.38121 l 1.54156,5.00693 0.2029,76.92586 0.20288,76.92586 h 29.31796 29.31796 l -5.8e-4,-75.22019 c -5.8e-4,-77.3524 -0.198,-84.20659 -2.7954,-97.0528 -7.17381,-35.48022 -29.51288,-59.39859 -62.48067,-66.897841 -7.23285,-1.645272 -27.02107,-2.052525 -35.12334,-0.722858 -16.33493,2.680739 -29.10163,8.783051 -40.0016,19.120229 -6.41884,6.08743 -9.26422,9.93123 -18.17273,24.5494 -4.02593,6.60625 -7.41209,12.01136 -7.5248,12.01136 -0.11272,0 -3.46409,-5.45789 -7.44751,-12.12863 -10.6486,-17.83244 -16.53278,-24.70986 -27.38167,-32.003703 -7.48809,-5.034328 -14.12187,-7.830104 -24.90283,-10.495177 -5.7105,-1.411649 -8.14541,-1.605673 -20.46808,-1.630979 -11.04702,-0.02272 -15.19853,0.232456 -19.75346,1.214017 -31.31647,6.74853 -53.13141,28.163732 -61.776514,60.644502 -4.02139,15.10889 -3.961705,13.71026 -4.251779,99.64 l -0.266583,78.97267 h 29.356416 29.35642 z"
     id="path99"
     inkscape:connector-curvature="0" />
</svg>
